<svg xmlns="http://www.w3.org/2000/svg" viewBox="0 0 320 80" width="320" height="80" fill="none">
  <rect width="320" height="80" rx="12" fill="transparent"/>
  <!-- Bag / Store Icon -->
  <rect x="16" y="24" width="40" height="40" rx="8" fill="#2D6A4F"/>
  <path d="M26 24V20C26 14.4772 30.4772 10 36 10C41.5228 10 46 14.4772 46 20V24" stroke="#2D6A4F" stroke-width="4" stroke-linecap="round"/>
  <!-- Grain/Sprout detail inside bag -->
  <path d="M36 34V52M36 40C33 38 30 39 30 43C33 44 36 42 36 42M36 44C39 42 42 43 42 47C39 48 36 46 36 46" stroke="#D8F3DC" stroke-width="2.5" stroke-linecap="round" stroke-linejoin="round"/>
  
  <!-- Text Brand -->
  <text x="68" y="42" font-family="system-ui, -apple-system, 'Segoe UI', Roboto, sans-serif" font-size="22" font-weight="800" fill="#0F172A" letter-spacing="-0.02em">BERKAH<tspan fill="#2D6A4F">SEMBAKO</tspan></text>
  <text x="68" y="58" font-family="system-ui, -apple-system, 'Segoe UI', Roboto, sans-serif" font-size="11" font-weight="600" fill="#64748B" letter-spacing="0.08em">TOKO KEBUTUHAN POKOK UKM</text>
</svg>
